
Complete name                    : SHAOLIN SOCCER Dual Audio Eng Hindi DVD 

Video
ID                               : 0
Format                           : MPEG-4 Visual
Format profile                   : Advanced Simple@L5
Format settings, BVOP            : 1
Format settings, QPel            : No
Format settings, GMC             : No warppoints
Format settings, Matrix          : Custom
Codec ID                         : XVID
Codec ID/Hint                    : XviD
Duration                         : 1h 25mn
Bit rate                         : 1 016 Kbps
Width                            : 608 pixels
Height                           : 336 pixels
Display aspect ratio             : 16:9
Frame rate                       : 25.000 fps
Color space                      : YUV
Chroma subsampling               : 4:2:0
Bit depth                        : 8 bits
Scan type                        : Progressive
Compression mode                 : Lossy
Bits/(Pixel*Frame)               : 0.199
Stream size                      : 622 MiB (80%)
Writing library                  : XviD 1.2.1 (UTC 2008-12-04)

Audio #2
ID                               : 2
Format                           : MPEG Audio
Format version                   : Version 1
Format profile                   : Layer 3
Mode                             : Joint stereo
Codec ID                         : 55
Codec ID/Hint                    : MP3
Duration                         : 1h 25mn
Bit rate mode                    : Constant
Bit rate                         : 128 Kbps
Channel(s)                       : 2 channels
Sampling rate                    : 48.0 KHz
Compression mode                 : Lossy
Stream size                      : 78.3 MiB (10%)
Alignment                        : Aligned on interleaves
Interleave, duration             : 675 ms (16.88 video frames)
Interleave, preload duration     : 216 ms
Title                            : Hindi


Screens.............................................
 
http://picturestack.com/615/911/LQivlcsnap201vFx.png 
http://picturestack.com/615/911/wZEvlcsnap201ztd.png 
http://picturestack.com/615/911/tEHvlcsnap201NHy.png 
http://picturestack.com/615/911/cujvlcsnap201BEg.png 
http://picturestack.com/615/911/GBOvlcsnap201tUL.png 
http://picturestack.com/615/911/l6Hvlcsnap201PnI.png
 
http://picturestack.com/616/309/v6xvlcsnap201pNX.png